<?xml version="1.0" encoding="UTF-8"?>
<svg width="26px" height="30px" viewBox="0 0 26 30" version="1.1" xmlns="http://www.w3.org/2000/svg" xmlns:xlink="http://www.w3.org/1999/xlink">
    <!-- Generator: sketchtool 50.2 (55047) - http://www.bohemiancoding.com/sketch -->
    <title>753AACFA-2F9F-49F0-9CC7-62999A393CE7</title>
    <desc>Created with sketchtool.</desc>
    <defs></defs>
    <g id="Page-1" stroke="none" stroke-width="1" fill="none" fill-rule="evenodd">
        <g id="icons" transform="translate(-470.000000, -653.000000)" fill="#260147">
            <g id="call" transform="translate(470.000000, 653.000000)">
                <g id="Fill-1">
                    <path d="M4.06604274,24.656409 L8.99027858,18.4192733 C9.2452775,18.0988017 9.71047822,18.0505587 10.0275039,18.3055576 L11.778037,19.7080517 C12.8393838,18.18495 13.8524877,16.5860379 14.7966728,14.9492205 C15.740858,13.319295 16.6195705,11.6445724 17.4086888,9.96295792 L15.3135625,9.1462722 C14.9310642,8.99465122 14.7484298,8.56390981 14.8966048,8.18485736 L17.8325383,0.814010302 C17.9772674,0.431511927 18.4080088,0.241985705 18.7870613,0.390160751 L23.2598801,2.13035606 C24.3005514,2.53697595 25.0862237,3.32609422 25.5066273,4.27372533 C25.9304769,5.22480237 25.9925036,6.33439225 25.5996675,7.37506351 C24.1902816,11.1035612 22.4604241,14.7390187 20.454892,18.2159634 C18.4424682,21.6997999 16.1578157,25.0147859 13.6388399,28.0954484 C12.932424,28.9603772 11.9365498,29.4600372 10.9027705,29.5668611 C9.87243699,29.6771309 8.79730643,29.3945645 7.92203988,28.6915946 L4.17975848,25.6936343 C3.86617873,25.4386354 3.81448976,24.9734347 4.06604274,24.656409 Z M11.6712131,4.42879224 C12.0502656,4.2806172 12.4775611,4.47358935 12.6257361,4.85264179 C12.7704652,5.23514017 12.580939,5.66243565 12.1984406,5.81061069 C11.126756,6.22067652 10.1170981,6.82716043 9.22804784,7.60938684 C8.37345688,8.36059986 7.63602758,9.26687979 7.06744891,10.3247807 C6.47819466,11.4171409 6.11637187,12.568082 5.96475089,13.722469 C5.80623805,14.9285449 5.87171075,16.1380668 6.15083118,17.2993457 C6.24731726,17.6956278 6.00265614,18.0953558 5.59948218,18.1883959 C5.20320008,18.2814361 4.80691797,18.0402209 4.7104319,17.6404929 C4.39340622,16.3069175 4.31070387,14.9113153 4.49333823,13.5294968 C4.66908072,12.1959214 5.08603841,10.8726838 5.76144095,9.62181072 C6.41961383,8.40195104 7.26731293,7.35438792 8.24595742,6.49290509 C9.26250715,5.60385482 10.423786,4.90777669 11.6712131,4.42879224 Z M10.8993245,0.0352298268 C11.2887148,-0.0888237002 11.7056724,0.124824041 11.829726,0.51766021 C11.9572254,0.903604516 11.7435777,1.32400814 11.3507415,1.44806166 C9.63466773,2.0028566 8.02197188,2.88156909 6.61258598,4.05318573 C5.26178091,5.18000527 4.09361019,6.58249931 3.20111399,8.2331004 C2.29827998,9.89748522 1.76760656,11.6618021 1.56774255,13.4330107 C1.36787853,15.2696921 1.52639137,17.1201572 2.01915955,18.8741363 C2.12942935,19.2704184 1.90199788,19.6770383 1.50571578,19.7873081 C1.11287962,19.8975779 0.70281379,19.6701464 0.592543988,19.2738643 C0.048086842,17.3406968 -0.131101586,15.3007055 0.0963298803,13.267606 C0.313423553,11.313763 0.902677806,9.3668118 1.89166009,7.53013042 C2.87375051,5.71067869 4.16597475,4.16345553 5.6684008,2.9160284 C7.22596175,1.62035823 9.00750824,0.648605599 10.8993245,0.0352298268 Z M9.68291077,19.9285913 L5.68218453,24.9975562 L8.85244133,27.5372076 C9.40723627,27.9817327 10.0929766,28.1609211 10.7511495,28.0920025 C11.4058764,28.0230839 12.0364819,27.7060582 12.4878989,27.1547092 C14.9689694,24.1188437 17.2088247,20.8727764 19.1695597,17.4785341 C21.1337405,14.0773999 22.8256928,10.5143069 24.2109572,6.85472788 C24.4625101,6.18966314 24.421159,5.48324722 24.1523763,4.87676331 C23.8835937,4.27372533 23.3839336,3.77061936 22.7257608,3.51217451 L18.9386823,2.03731592 L16.5472059,8.03668232 L18.6802374,8.86715176 C19.0627358,9.01532681 19.2488161,9.44262229 19.100641,9.82512067 L19.0765195,9.88025557 C18.1909152,11.8340986 17.1778114,13.7879417 16.0785593,15.6900957 L16.0751133,15.6935417 C14.9793072,17.5991417 13.787015,19.4530527 12.5361419,21.2104777 C12.3018186,21.544733 11.8366178,21.6205435 11.5023625,21.3827743 L9.68291077,19.9285913 Z"></path>
                </g>
            </g>
        </g>
    </g>
</svg>