<?xml version="1.0" encoding="UTF-8"?>
<svg width="96px" height="67px" viewBox="0 0 96 67" version="1.1" xmlns="http://www.w3.org/2000/svg" xmlns:xlink="http://www.w3.org/1999/xlink">
    <!-- Generator: sketchtool 50.2 (55047) - http://www.bohemiancoding.com/sketch -->
    <title>F63BE912-1DF0-4059-87DA-17A5B4104FEB</title>
    <desc>Created with sketchtool.</desc>
    <defs></defs>
    <g id="Page-1" stroke="none" stroke-width="1" fill="none" fill-rule="evenodd">
        <g id="icons" transform="translate(-50.000000, -631.000000)">
            <g id="clients" transform="translate(51.000000, 632.000000)">
                <g>
                    <path d="M35.2945554,19.0792366 L33.5698989,19.0792366 L27.9146302,19.0792366 L26.1899737,19.0792366 L26.1899737,21.9365578 L35.2945554,21.9365578 L35.2945554,19.0792366 Z M29.3518439,16.2481897 L32.1260005,16.2481897 L32.1260005,13.4302799 L29.3518439,13.4302799 L29.3518439,16.2481897 Z M19.3448257,34.9882752 L14.4649838,34.9882752 L14.4649838,37.7667737 L19.1843925,37.7667737 C19.2378702,37.7667737 19.2846632,37.7667737 19.3448257,37.7733423 L19.3448257,34.9882752 Z M13.7229805,56.1521573 C12.9274994,56.1521573 12.2857668,55.5150075 12.2857668,54.7333496 C12.2857668,53.9516916 12.9274994,53.3145418 13.7229805,53.3145418 L19.3448257,53.3145418 L19.3448257,48.1845009 L13.7229805,48.1845009 C12.9274994,48.1845009 12.2857668,47.5473511 12.2857668,46.7656932 C12.2857668,45.9840352 12.9274994,45.353454 13.7229805,45.353454 L19.3448257,45.353454 L19.3448257,40.7488974 C19.3448257,40.7094861 19.3247715,40.6700747 19.2980327,40.6438005 C19.2712938,40.6175263 19.2311855,40.5978206 19.1843925,40.5978206 L13.0277701,40.5978206 L10.614588,40.5978206 C10.567795,40.5978206 10.5276867,40.6175263 10.5009479,40.6503691 L10.5009479,40.6438005 C10.4675243,40.6700747 10.4541549,40.7094861 10.4541549,40.7554659 L10.4541549,62.1689531 L19.3448257,62.1689531 L19.3448257,56.1521573 L13.7229805,56.1521573 Z M42.1397034,53.3145418 L47.1265007,53.3145418 C47.9286665,53.3145418 48.5703992,53.9516916 48.5703992,54.7333496 C48.5703992,55.5150075 47.9286665,56.1521573 47.1265007,56.1521573 L42.1397034,56.1521573 L42.1397034,62.1689531 L51.1573838,62.1689531 L51.1573838,48.2239122 C51.1573838,48.1779323 51.1373297,48.138521 51.1105908,48.1122468 L51.1105908,48.1056782 C51.0838519,48.079404 51.0437437,48.0662669 50.9969507,48.0662669 L42.3068213,48.0662669 C42.2600283,48.0662669 42.21992,48.0859726 42.1931812,48.1056782 L42.1864964,48.1056782 C42.1597576,48.1319525 42.1397034,48.1713638 42.1397034,48.2173437 L42.1397034,53.3145418 Z M26.6913273,40.2299816 C25.8958463,40.2299816 25.2541136,39.5994004 25.2541136,38.8111739 C25.2541136,38.0295159 25.8958463,37.3989347 26.6913273,37.3989347 L34.7932018,37.3989347 C35.5886828,37.3989347 36.2371002,38.0295159 36.2371002,38.8111739 C36.2371002,39.5994004 35.5886828,40.2299816 34.7932018,40.2299816 L26.6913273,40.2299816 Z M26.6913273,48.1845009 C25.8958463,48.1845009 25.2541136,47.5473511 25.2541136,46.7656932 C25.2541136,45.9840352 25.8958463,45.353454 26.6913273,45.353454 L34.7932018,45.353454 C35.5886828,45.353454 36.2371002,45.9840352 36.2371002,46.7656932 C36.2371002,47.5473511 35.5886828,48.1845009 34.7932018,48.1845009 L26.6913273,48.1845009 Z M26.6913273,56.1521573 C25.8958463,56.1521573 25.2541136,55.5150075 25.2541136,54.7333496 C25.2541136,53.9516916 25.8958463,53.3145418 26.6913273,53.3145418 L34.7932018,53.3145418 C35.5886828,53.3145418 36.2371002,53.9516916 36.2371002,54.7333496 C36.2371002,55.5150075 35.5886828,56.1521573 34.7932018,56.1521573 L26.6913273,56.1521573 Z M26.6913273,32.2688937 C25.8958463,32.2688937 25.2541136,31.631744 25.2541136,30.850086 C25.2541136,30.068428 25.8958463,29.4312783 26.6913273,29.4312783 L34.7932018,29.4312783 C35.5886828,29.4312783 36.2371002,30.068428 36.2371002,30.850086 C36.2371002,31.631744 35.5886828,32.2688937 34.7932018,32.2688937 L26.6913273,32.2688937 Z M1.75734081,65 C0.96185974,65 0.320127111,64.3694188 0.320127111,63.5811923 C0.320127111,62.7995343 0.96185974,62.1689531 1.75734081,62.1689531 L7.56635805,62.1689531 L7.56635805,40.7554659 C7.56635805,39.9343966 7.90727851,39.19215 8.46210984,38.64696 C9.01025646,38.10177 9.77231396,37.7667737 10.614588,37.7667737 L11.5838717,37.7667737 L11.5838717,33.5694675 C11.5838717,32.7878095 12.232289,32.1506598 13.0277701,32.1506598 L19.3448257,32.1506598 L19.3448257,24.92525 C19.3448257,24.1567291 19.6456378,23.4473253 20.1403067,22.9152724 L20.2405775,22.8101755 C20.7887241,22.271554 21.5440969,21.9365578 22.3863709,21.9365578 L23.3088616,21.9365578 L23.3088616,17.6604289 C23.3088616,16.8787709 23.9572789,16.2481897 24.75276,16.2481897 L26.4774165,16.2481897 L26.4774165,12.0114722 C26.4774165,11.2298142 27.1191491,10.5926644 27.9146302,10.5926644 L29.3050509,10.5926644 L29.3050509,4.2080296 C29.3050509,3.42637164 29.9467835,2.79579042 30.7422646,2.79579042 C31.5377456,2.79579042 32.186163,3.42637164 32.186163,4.2080296 L32.186163,10.5926644 L33.5698989,10.5926644 C34.36538,10.5926644 35.0137974,11.2298142 35.0137974,12.0114722 L35.0137974,16.2481897 L36.7317691,16.2481897 C37.5339349,16.2481897 38.1756675,16.8787709 38.1756675,17.6604289 L38.1756675,21.9365578 L39.0981582,21.9365578 C39.9404322,21.9365578 40.7024897,22.271554 41.2506364,22.8101755 C41.8054677,23.3553655 42.1397034,24.1041807 42.1397034,24.92525 L42.1397034,45.23522 C42.1931812,45.2286514 42.2533436,45.2286514 42.3068213,45.2286514 L50.9969507,45.2286514 C51.83254,45.2286514 52.5879128,45.5702163 53.1427441,46.1088377 C53.6975755,46.6474592 54.0384959,47.3962744 54.0384959,48.2239122 L54.0384959,62.1689531 L59.7271883,62.1689531 C60.5226694,62.1689531 61.1710867,62.7995343 61.1710867,63.5811923 C61.1710867,64.3694188 60.5226694,65 59.7271883,65 L52.5945975,65 L40.7024897,65 L20.7820394,65 L9.01025646,65 L1.75734081,65 Z M22.2259378,62.1689531 L39.2585913,62.1689531 L39.2585913,54.7333496 L39.2585913,48.2239122 L39.2585913,24.92525 C39.2585913,24.8858387 39.2452219,24.8398588 39.2117983,24.8135846 C39.1850595,24.7873103 39.1449512,24.7676047 39.0981582,24.7676047 L36.7317691,24.7676047 L24.75276,24.7676047 L22.3863709,24.7676047 C22.3462627,24.7676047 22.3061544,24.7873103 22.2727308,24.8135846 L22.2526766,24.8332902 C22.2393072,24.8595644 22.2259378,24.8924072 22.2259378,24.92525 L22.2259378,33.5694675 L22.2259378,40.7554659 L22.2259378,46.7656932 L22.2259378,54.7333496 L22.2259378,62.1689531 Z" id="Fill-1" stroke="#FFFFFF" fill="#260147"></path>
                    <path d="M41.6158537,29.7256098 L58.7823054,23.7804878" id="Line-2" stroke="#260147" stroke-width="2" stroke-linecap="round" stroke-dasharray="1,6"></path>
                    <circle id="Oval" stroke="#260147" stroke-width="2" cx="75.7012195" cy="17.8353659" r="17.8353659"></circle>
                    <path d="M83.5568896,17.1259804 C84.0562868,17.1259804 84.4633586,17.5259784 84.4633586,18.0166977 C84.4633586,18.5074169 84.0562868,18.9074149 83.5568896,18.9074149 L71.646894,18.9074149 C71.1433001,18.9074149 70.740425,18.5074169 70.740425,18.0166977 C70.740425,17.5259784 71.1433001,17.1259804 71.646894,17.1259804 L83.5568896,17.1259804 Z" id="Path" fill="#260147"></path>
                    <path d="M83.5568896,23.0640955 C84.0562868,23.0640955 84.4633586,23.4640935 84.4633586,23.9548127 C84.4633586,24.445532 84.0562868,24.8414063 83.5568896,24.8414063 L71.646894,24.8414063 C71.1433001,24.8414063 70.740425,24.445532 70.740425,23.9548127 C70.740425,23.4640935 71.1433001,23.0640955 71.646894,23.0640955 L83.5568896,23.0640955 Z" id="Path" fill="#260147"></path>
                    <path d="M67.1271388,22.5403867 C67.5216207,22.5403867 67.8825297,22.7012107 68.1427198,22.9568795 L68.1469165,22.9568795 C68.40291,23.2125484 68.566578,23.5630621 68.566578,23.9548127 C68.566578,24.3424397 68.40291,24.6929534 68.1469165,24.952746 C68.1175402,24.9733644 68.0923605,24.9981066 68.0671808,25.018725 C67.8153838,25.233157 67.4880478,25.3651151 67.1271388,25.3651151 C66.732657,25.3651151 66.3759446,25.2042911 66.1115578,24.952746 C65.8555643,24.6929534 65.6960929,24.3424397 65.6960929,23.9548127 C65.6960929,23.5630621 65.8555643,23.2125484 66.1115578,22.9568795 C66.3759446,22.7012107 66.732657,22.5403867 67.1271388,22.5403867 Z" id="Path" fill="#260147"></path>
                    <path d="M67.1271388,16.6063953 C67.5216207,16.6063953 67.8825297,16.7630956 68.1427198,17.0187644 L68.1469165,17.0187644 C68.40291,17.2744333 68.566578,17.6290707 68.566578,18.0166977 C68.566578,18.4043246 68.40291,18.7589621 68.1469165,19.0146309 C68.1175402,19.0352494 68.0923605,19.0599915 68.0671808,19.08061 C67.8153838,19.2950419 67.4880478,19.427 67.1271388,19.427 C66.732657,19.427 66.3759446,19.2702997 66.1115578,19.0146309 C65.8555643,18.7589621 65.6960929,18.4043246 65.6960929,18.0166977 C65.6960929,17.624947 65.8555643,17.2744333 66.1115578,17.0187644 C66.3759446,16.7630956 66.732657,16.6063953 67.1271388,16.6063953 Z" id="Path" fill="#260147"></path>
                    <path d="M67.1271388,10.6641566 C67.5216207,10.6641566 67.8825297,10.8208568 68.1427198,11.0765257 L68.1469165,11.0765257 C68.40291,11.3321945 68.566578,11.686832 68.566578,12.0744589 C68.566578,12.4662096 68.40291,12.8167233 68.1469165,13.0723921 C68.1175402,13.0971343 68.0923605,13.1177527 68.0671808,13.1424949 C67.8153838,13.3528031 67.4880478,13.4888849 67.1271388,13.4888849 C66.732657,13.4888849 66.3759446,13.328061 66.1115578,13.0723921 C65.8555643,12.8167233 65.6960929,12.4662096 65.6960929,12.0744589 C65.6960929,11.686832 65.8555643,11.3321945 66.1115578,11.0765257 C66.3759446,10.8208568 66.732657,10.6641566 67.1271388,10.6641566 Z" id="Path" fill="#260147"></path>
                    <path d="M83.5568896,11.1878654 C84.0562868,11.1878654 84.4633586,11.5837397 84.4633586,12.0744589 C84.4633586,12.5651781 84.0562868,12.9651762 83.5568896,12.9651762 L71.646894,12.9651762 C71.1433001,12.9651762 70.740425,12.5651781 70.740425,12.0744589 C70.740425,11.5837397 71.1433001,11.1878654 71.646894,11.1878654 L83.5568896,11.1878654 Z" id="Path" fill="#260147"></path>
                </g>
            </g>
        </g>
    </g>
</svg>