<?xml version="1.0" encoding="UTF-8"?>
<svg width="25px" height="17px" viewBox="0 0 25 17" version="1.1" xmlns="http://www.w3.org/2000/svg" xmlns:xlink="http://www.w3.org/1999/xlink">
    <!-- Generator: sketchtool 50.2 (55047) - http://www.bohemiancoding.com/sketch -->
    <title>C2395F35-2F2C-424A-8A7C-1C2D67257B7C</title>
    <desc>Created with sketchtool.</desc>
    <defs></defs>
    <g id="Page-1" stroke="none" stroke-width="1" fill="none" fill-rule="evenodd">
        <g id="icons" transform="translate(-549.000000, -660.000000)" fill="#260147">
            <g id="email" transform="translate(549.000000, 660.000000)">
                <g id="Fill-1">
                    <path d="M6.77660838,8.76175601 L1.14537969,4.50445145 L1.14537969,13.0190606 L6.77660838,8.76175601 Z M16.5242945,9.48193675 L13.3911097,11.8471059 C13.0137456,12.1341152 12.5699442,12.2776199 12.1261428,12.2776199 C11.6796839,12.2776199 11.2385399,12.1341152 10.8585184,11.8471059 L7.72533355,9.47927925 L1.25433692,14.3717248 C1.29951431,14.4567645 1.35797917,14.5338319 1.427074,14.6029267 C1.59981108,14.7756638 1.83898549,14.884621 2.10207734,14.884621 L22.1502082,14.884621 C22.4133,14.884621 22.6524744,14.7783213 22.8252115,14.6055842 L22.8252115,14.6029267 C22.8916489,14.5338319 22.9501137,14.4567645 22.9952911,14.3717248 L16.5242945,9.48193675 Z M23.1042483,4.50445145 L17.4730196,8.76175601 L23.1042483,13.0190606 L23.1042483,4.50445145 Z M1.14537969,3.06940497 L8.06283523,8.29935215 L8.08143768,8.31529711 L11.5468092,10.9329282 C11.7222038,11.0658029 11.9241733,11.1322402 12.1261428,11.1322402 C12.3254548,11.1322402 12.5274243,11.0658029 12.7001614,10.9329282 L16.1681903,8.31529711 L16.1894503,8.29935215 L23.1042483,3.06940497 L23.1042483,2.10207734 C23.1042483,1.83898549 22.9979486,1.59715358 22.827869,1.427074 L22.8252115,1.42441651 C22.6524744,1.25167943 22.4133,1.14537969 22.1502082,1.14537969 L2.10207734,1.14537969 C1.83898549,1.14537969 1.59981108,1.25167943 1.427074,1.427074 L1.40315656,1.44833395 C1.24370695,1.61841353 1.14537969,1.84695797 1.14537969,2.10207734 L1.14537969,3.06940497 Z M24.244313,14.0980029 C24.2576005,14.2043027 24.2416555,14.3106024 24.1964782,14.4089297 C24.1061234,14.7969237 23.9068114,15.1423979 23.6330895,15.4134622 C23.2504105,15.7934838 22.7268843,16.0300007 22.1502082,16.0300007 L2.10207734,16.0300007 C1.52274377,16.0300007 0.996560056,15.7934838 0.616538488,15.4134622 C0.345474153,15.1423979 0.146162142,14.7969237 0.0558073631,14.4089297 C0.00797248045,14.3106024 -0.00797248045,14.2043027 0.00531498697,14.0980029 C0.00265749348,14.0421956 0,13.9863882 0,13.9279233 L0,2.10207734 C0,1.54134622 0.223229453,1.03110747 0.581991073,0.651085903 L0.616538488,0.616538488 C0.996560056,0.23651692 1.52274377,0 2.10207734,0 L22.1502082,0 C22.7242268,0 23.2504105,0.23651692 23.630432,0.616538488 L23.6330895,0.619195981 C24.0157686,0.999217549 24.2522855,1.52540126 24.2522855,2.10207734 L24.2522855,13.9279233 C24.2522855,13.9863882 24.249628,14.0421956 24.244313,14.0980029 Z"></path>
                </g>
            </g>
        </g>
    </g>
</svg>