<?xml version="1.0" encoding="UTF-8"?>
<svg width="66px" height="52px" viewBox="0 0 66 52" version="1.1" xmlns="http://www.w3.org/2000/svg" xmlns:xlink="http://www.w3.org/1999/xlink">
    <!-- Generator: sketchtool 50.2 (55047) - http://www.bohemiancoding.com/sketch -->
    <title>5BAFA0D4-B81F-4AF3-B160-9B00946F34BD</title>
    <desc>Created with sketchtool.</desc>
    <defs></defs>
    <g id="Page-1" stroke="none" stroke-width="1" fill="none" fill-rule="evenodd">
        <g id="icons" transform="translate(-273.000000, -646.000000)" fill="#28014A" stroke="#FFFFFF">
            <g id="insights" transform="translate(274.000000, 647.000000)">
                <g>
                    <path d="M16.1131639,37.7819029 L40.5199662,37.7819029 C40.9540133,37.7819029 41.3546721,37.6147855 41.6484886,37.3473977 L41.7019098,37.2872354 C42.0090816,36.9797394 42.1960557,36.5652882 42.1960557,36.1040442 L42.1960557,33.0357686 L42.1960557,10.7556762 C42.1960557,10.2877475 42.0090816,9.86661159 41.7085875,9.56580027 L41.7019098,9.56580027 C41.4014157,9.25830424 40.9874015,9.07781744 40.5199662,9.07781744 L20.6472866,9.07781744 L4.56751102,9.07781744 C4.10007568,9.07781744 3.67938388,9.26498894 3.37221208,9.56580027 C3.07171794,9.86661159 2.8847438,10.2877475 2.8847438,10.7556762 L2.8847438,36.1040442 C2.8847438,36.5385494 3.04500735,36.9396312 3.3187909,37.2337578 L3.37221208,37.2872354 C3.67938388,37.5947314 4.10007568,37.7819029 4.56751102,37.7819029 L5.54912523,37.7819029 C5.629257,37.7819029 5.71606642,37.7952723 5.80955349,37.8086417 C6.58416062,37.955705 7.09833949,38.704391 6.95810889,39.4798158 L5.90304056,45.1751769 L15.1382273,38.1629306 C15.3919779,37.9289663 15.7392156,37.7819029 16.1131639,37.7819029 Z M55.5980946,20.5086479 C56.3927347,20.5086479 57.0337889,21.1570635 57.0337889,21.9458576 C57.0337889,22.7480212 56.3927347,23.389752 55.5980946,23.389752 L45.0741219,23.389752 L45.0741219,31.5918743 L48.1725504,31.5918743 C48.5464987,31.5918743 48.8937364,31.7389376 49.147487,31.9729019 L58.3826737,38.9918329 L57.3276054,33.2964718 C57.1806971,32.5143623 57.7015537,31.7656764 58.4828384,31.618613 C58.5696479,31.6052436 58.6564573,31.5985589 58.7365891,31.5985589 L58.7365891,31.5918743 L59.7248809,31.5918743 C60.1923163,31.5918743 60.6130081,31.4047028 60.9068246,31.1038914 L60.9068246,31.0972067 C61.2139963,30.7963954 61.4009705,30.3752595 61.4009705,29.9140155 L61.4009705,4.56564751 C61.4009705,4.09771877 61.2139963,3.67658291 60.9135022,3.38245628 L60.9068246,3.37577158 C60.6130081,3.07496025 60.1923163,2.88778876 59.7248809,2.88778876 L23.7657481,2.88778876 C23.3049904,2.88778876 22.8842986,3.07496025 22.5838045,3.38245628 L22.5237056,3.42924915 C22.2565997,3.73006048 22.0896585,4.12445756 22.0896585,4.56564751 L22.0896585,6.19002868 L40.5199662,6.19002868 C41.7686863,6.19002868 42.910564,6.70475029 43.7319147,7.53365262 L43.74527,7.54033732 C44.5666207,8.36923965 45.0741219,9.505638 45.0741219,10.7556762 L45.0741219,11.1701274 L55.5980946,11.1701274 C56.3927347,11.1701274 57.0337889,11.8185429 57.0337889,12.6140217 C57.0337889,13.4095006 56.3927347,14.0512314 55.5980946,14.0512314 L45.0741219,14.0512314 L45.0741219,20.5086479 L55.5980946,20.5086479 Z M36.5734764,17.0326059 L8.50732315,17.0326059 C7.71268308,17.0326059 7.06495125,17.6743368 7.06495125,18.4698156 C7.06495125,19.2652945 7.71268308,19.91371 8.50732315,19.91371 L36.5734764,19.91371 C37.3681165,19.91371 38.0158483,19.2652945 38.0158483,18.4698156 C38.0158483,17.6743368 37.3681165,17.0326059 36.5734764,17.0326059 Z M26.5770378,26.3644418 L8.50064551,26.3644418 C7.70600543,26.3644418 7.06495125,27.0128574 7.06495125,27.8083362 C7.06495125,28.603815 7.70600543,29.2522306 8.50064551,29.2522306 L26.5770378,29.2522306 C27.3716779,29.2522306 28.012732,28.603815 28.012732,27.8083362 C28.012732,27.0128574 27.3716779,26.3644418 26.5770378,26.3644418 Z M40.5199662,40.6696917 L16.5872769,40.6696917 L4.68770868,49.707401 C4.05333215,50.1886991 3.15184971,50.0616899 2.67105907,49.4333284 C2.42398611,49.0990936 2.33717669,48.6913271 2.40395317,48.3102995 L3.83296977,40.6095294 C2.86471086,40.4490967 2.00329431,39.9878527 1.34220719,39.3260678 L1.25539777,39.232482 C0.480790633,38.4169491 0,37.3072895 0,36.1040442 L0,10.7556762 C0,9.505638 0.514178872,8.36255495 1.34220719,7.53365262 C2.16355785,6.70475029 3.30543561,6.19002868 4.56751102,6.19002868 L19.2049147,6.19002868 L19.2049147,4.56564751 C19.2049147,3.36240219 19.6857054,2.25274262 20.4603125,1.43720968 L20.5471219,1.33693924 C21.3684726,0.514721608 22.5103504,0 23.7657481,0 L59.7248809,0 C60.973601,0 62.1088011,0.514721608 62.9368295,1.33693924 L62.9501847,1.34362394 C63.7715354,2.17252627 64.2857143,3.31560932 64.2857143,4.56564751 L64.2857143,29.9140155 C64.2857143,31.1707384 63.7715354,32.3138214 62.9501847,33.1360391 L62.9435071,33.1360391 C62.28242,33.797824 61.4210034,34.259068 60.4527445,34.4195007 L61.8817611,42.1202708 C61.9485376,42.5012985 61.8684058,42.9157496 61.6146552,43.2432997 C61.1338646,43.8783459 60.2323821,43.9986704 59.6046833,43.5173723 L47.6984374,34.479663 L45.0741219,34.479663 L45.0741219,36.1040442 C45.0741219,37.3607671 44.5666207,38.4971654 43.7385924,39.3260678 L43.6517829,39.4129688 C42.8304323,40.1883936 41.7219428,40.6696917 40.5199662,40.6696917 Z"></path>
                </g>
            </g>
        </g>
    </g>
</svg>