<?xml version="1.0" encoding="UTF-8"?>
<svg width="79px" height="52px" viewBox="0 0 79 52" version="1.1" xmlns="http://www.w3.org/2000/svg" xmlns:xlink="http://www.w3.org/1999/xlink">
    <!-- Generator: sketchtool 50.2 (55047) - http://www.bohemiancoding.com/sketch -->
    <title>B0652207-2DE9-4BAD-89DA-6117A6051878</title>
    <desc>Created with sketchtool.</desc>
    <defs></defs>
    <g id="Page-1" stroke="none" stroke-width="1" fill="none" fill-rule="evenodd">
        <g id="icons" transform="translate(-165.000000, -646.000000)" fill="#260147" stroke="#FFFFFF">
            <g id="news" transform="translate(166.000000, 647.000000)">
                <g>
                    <path d="M8.17165516,11.7208016 L8.17165516,10.9686646 L3.73718074,10.9686646 C3.63532885,10.9686646 3.54131173,11.0078384 3.47863364,11.0705165 L3.47079888,11.0705165 C3.41595556,11.1331946 3.38461652,11.219377 3.38461652,11.3212289 L3.38461652,43.8824933 C3.38461652,44.5406132 3.65099837,45.1438898 4.08974496,45.5748016 C4.51282202,46.0057134 5.11609858,46.27993 5.7663837,46.27993 L5.79772274,46.27993 C6.41666882,46.2720953 6.98860633,46.0292177 7.39601387,45.6453144 L7.46652672,45.5748016 C7.9052733,45.1438898 8.17165516,44.5406132 8.17165516,43.8824933 L8.17165516,11.7599754 L8.17165516,11.7208016 Z M64.3077138,39.4480189 C64.7699647,39.0797852 65.2008765,38.6880471 65.6161188,38.2728048 C66.0627002,37.8340583 66.4779425,37.3639726 66.8618458,36.8703827 L73.5762355,43.5691029 C73.756435,43.7884762 73.8504521,44.0626928 73.8504521,44.3369094 C73.8504521,44.6424651 73.7407654,44.940186 73.5135574,45.167394 L72.5185428,46.1624086 L72.510708,46.1624086 L72.44803,46.2329215 C72.1973176,46.4601295 71.9544401,46.5933204 71.727232,46.6168247 C71.5862063,46.6324942 71.4060068,46.5541466 71.2414768,46.3896167 L71.2414768,46.3817819 L64.3077138,39.4480189 Z M68.7265187,33.9401823 L75.9109941,41.1324924 L76.0050112,41.2500138 C76.8276611,42.1196722 77.2272338,43.2322082 77.2272338,44.3369094 C77.2272338,45.496454 76.7884873,46.6559985 75.9109941,47.5413265 C75.816977,47.6275088 74.90031,48.5441758 74.9081447,48.5520106 L74.7984581,48.6460277 C73.9758082,49.421669 73.0121327,49.8995894 72.0249529,49.9857717 C70.8967474,50.0797889 69.7920462,49.7115551 68.8597097,48.7713839 L68.8518749,48.7713839 L61.4010177,41.3205267 C61.0014449,41.5242304 60.5862026,41.7044299 60.1787951,41.8767947 L60.1787951,43.8824933 C60.1787951,45.4729497 59.52851,46.9223804 58.4864868,47.9644035 C57.4366289,49.0142614 55.995033,49.6567118 54.3967419,49.6567118 L13.9458736,49.6567118 L13.8988651,49.6567118 L5.7663837,49.6567118 C4.18376208,49.6567118 2.74216616,49.0142614 1.69230826,47.9644035 C0.642450358,46.9223804 0,45.4729497 0,43.8824933 L0,11.3212289 C0,10.30271 0.415242304,9.37820827 1.0890317,8.69658411 L1.10470122,8.68091459 C1.77849062,8.00712519 2.71082712,7.59188288 3.73718074,7.59188288 L8.17165516,7.59188288 L8.17165516,3.73718074 C8.17165516,2.71866188 8.58689746,1.78632538 9.26068686,1.11253599 L9.27635638,1.09686646 C9.95014578,0.423077065 10.8824823,0 11.9088359,0 L56.4416143,0 C57.4758027,0 58.4081392,0.423077065 59.0819286,1.09686646 C59.755718,1.77065586 60.1787951,2.71082712 60.1787951,3.73718074 L60.1787951,11.642454 C62.2315023,12.4729386 64.0805058,13.702996 65.6161188,15.2464439 C68.5619888,18.1923138 70.387488,22.2663892 70.387488,26.755707 C70.387488,29.3411779 69.7842114,31.7777884 68.7265187,33.9401823 Z M30.2735144,35.616821 L18.5997213,35.616821 C17.6673848,35.616821 16.9074131,36.368958 16.9074131,37.3091293 C16.9074131,38.233631 17.6673848,38.9936028 18.5997213,38.9936028 L30.2735144,38.9936028 C31.2058509,38.9936028 31.9658227,38.233631 31.9658227,37.3091293 C31.9658227,36.368958 31.2058509,35.616821 30.2735144,35.616821 Z M30.2735144,27.5156787 L18.5997213,27.5156787 C17.6673848,27.5156787 16.9074131,28.2756505 16.9074131,29.207987 C16.9074131,30.1403235 17.6673848,30.8924605 18.5997213,30.8924605 L30.2735144,30.8924605 C31.2058509,30.8924605 31.9658227,30.1403235 31.9658227,29.207987 C31.9658227,28.2756505 31.2058509,27.5156787 30.2735144,27.5156787 Z M30.2735144,19.4145364 L18.5997213,19.4145364 C17.6673848,19.4145364 16.9074131,20.1745082 16.9074131,21.1068447 C16.9074131,22.0391812 17.6673848,22.7991529 18.5997213,22.7991529 L30.2735144,22.7991529 C31.2058509,22.7991529 31.9658227,22.0391812 31.9658227,21.1068447 C31.9658227,20.1745082 31.2058509,19.4145364 30.2735144,19.4145364 Z M38.3041439,22.7991529 C37.9907535,24.0683841 37.8183887,25.3924586 37.8183887,26.755707 C37.8183887,27.0142541 37.8262235,27.2649664 37.8340583,27.5156787 L37.7243716,27.5156787 C36.7920351,27.5156787 36.0398981,28.2756505 36.0398981,29.207987 C36.0398981,30.1403235 36.7920351,30.8924605 37.7243716,30.8924605 L38.3511524,30.8924605 C38.789899,32.5926035 39.5028622,34.1830599 40.4351987,35.616821 L37.7243716,35.616821 C36.7920351,35.616821 36.0398981,36.368958 36.0398981,37.3091293 C36.0398981,38.233631 36.7920351,38.9936028 37.7243716,38.9936028 L43.3575644,38.9936028 C46.2172519,41.5163957 49.9857717,43.044174 54.099021,43.044174 C55.0156879,43.044174 55.9245202,42.9658264 56.7941786,42.8248007 L56.7941786,43.8824933 C56.7941786,44.5406132 56.5277967,45.1438898 56.0890501,45.5748016 C55.6581383,46.0057134 55.0548617,46.27993 54.3967419,46.27993 L13.9850474,46.27993 L13.9458736,46.27993 L11.0313427,46.27993 C11.3525679,45.5591321 11.5484369,44.7678213 11.5562717,43.9295019 L11.5562717,43.8824933 L11.5562717,3.73718074 C11.5562717,3.63532885 11.5954455,3.54914649 11.6502888,3.4864684 L11.6502888,3.47863364 C11.7129669,3.41595556 11.806984,3.38461652 11.9088359,3.38461652 L56.4416143,3.38461652 C56.5356315,3.38461652 56.6296486,3.41595556 56.6844919,3.4864684 C56.7550048,3.54914649 56.7941786,3.63532885 56.7941786,3.73718074 L56.7941786,10.694448 C55.9245202,10.5534223 55.0156879,10.4750747 54.099021,10.4750747 C52.2970261,10.4750747 50.5498745,10.7649609 48.9202443,11.3133941 L18.5997213,11.3133941 C17.6673848,11.3133941 16.9074131,12.0733659 16.9074131,13.0057024 C16.9074131,13.9380389 17.6673848,14.6980106 18.5997213,14.6980106 L43.1616954,14.6980106 C42.9658264,14.8782101 42.7777921,15.0584096 42.5897579,15.2464439 C41.3675352,16.4608317 40.3411816,17.8710886 39.5655403,19.4145364 L37.7243716,19.4145364 C36.7920351,19.4145364 36.0398981,20.1745082 36.0398981,21.1068447 C36.0398981,22.0391812 36.7920351,22.7991529 37.7243716,22.7991529 L38.3041439,22.7991529 Z M54.099021,13.9772127 C50.5733788,13.9772127 47.3767965,15.4031391 45.0655422,17.7222282 C42.7464531,20.0334825 41.3126919,23.2300648 41.3126919,26.755707 C41.3126919,30.2891839 42.7464531,33.4857662 45.0655422,35.7970205 C47.3767965,38.1161096 50.5733788,39.542036 54.099021,39.542036 C57.6324979,39.542036 60.8290802,38.1161096 63.1481693,35.7970205 C65.4594236,33.4857662 66.88535,30.2891839 66.88535,26.755707 C66.88535,23.2300648 65.4594236,20.0334825 63.1481693,17.7222282 C60.8290802,15.4031391 57.6324979,13.9772127 54.099021,13.9772127 Z"></path>
                </g>
            </g>
        </g>
    </g>
</svg>