<?xml version="1.0" encoding="UTF-8"?>
<svg width="26px" height="32px" viewBox="0 0 26 32" version="1.1" xmlns="http://www.w3.org/2000/svg" xmlns:xlink="http://www.w3.org/1999/xlink">
    <!-- Generator: sketchtool 50.2 (55047) - http://www.bohemiancoding.com/sketch -->
    <title>66A40857-6AAA-47D8-91DF-74C253028F11</title>
    <desc>Created with sketchtool.</desc>
    <defs></defs>
    <g id="Page-1" stroke="none" stroke-width="1" fill="none" fill-rule="evenodd">
        <g id="icons" transform="translate(-388.000000, -652.000000)" fill="#260147">
            <g id="pin" transform="translate(388.000000, 652.000000)">
                <g>
                    <path d="M10.1548543,27.117235 C11.0860392,28.147182 11.9925337,29.1559657 12.8037933,30.0800962 C13.6150529,29.1559657 14.5215474,28.147182 15.4527324,27.117235 C17.8159669,24.5035681 20.3202902,21.7276493 22.034517,19.2973976 C22.704688,18.3485765 23.2196615,17.3080479 23.5618015,16.214611 C23.9109958,15.1141197 24.0908838,13.9677745 24.0908838,12.8037933 L24.0873566,12.8037933 C24.0873566,9.68926177 22.8246134,6.86748914 20.7823554,4.8252312 C18.7436247,2.78650047 15.9218521,1.52375722 12.8037933,1.52375722 C9.68926177,1.52375722 6.86748914,2.78650047 4.8252312,4.8252312 C2.78650047,6.86748914 1.52023,9.68926177 1.52023,12.8037933 C1.52023,13.9818834 1.69659079,15.1141197 2.03873073,16.1934477 C2.38439787,17.2868846 2.89937138,18.3274132 3.57659681,19.304452 C5.29082368,21.7311765 7.79514689,24.5035681 10.1548543,27.117235 M8.14786847,8.14786847 C6.95566953,9.34006741 6.21848143,10.9872772 6.21848143,12.8037933 L6.22200865,12.8037933 C6.22200865,14.6238367 6.95919675,16.2710464 8.14786847,17.4597182 C9.34006741,18.6519171 10.9872772,19.3926324 12.8037933,19.3926324 C14.6238367,19.3926324 16.2710464,18.6519171 17.4597182,17.4597182 C18.6519171,16.2710464 19.3891052,14.6238367 19.3891052,12.8037933 C19.3891052,10.9872772 18.6519171,9.34006741 17.4597182,8.14786847 C16.2710464,6.95919675 14.6238367,6.21848143 12.8037933,6.21848143 C10.9872772,6.21848143 9.34006741,6.95919675 8.14786847,8.14786847 M12.8037933,7.74223866 C11.4034886,7.74223866 10.1407454,8.30659318 9.22366929,9.22366929 C8.30659318,10.1407454 7.73871144,11.4034886 7.73871144,12.8037933 C7.73871144,14.2005708 8.30659318,15.4668412 9.22366929,16.3874446 C10.1407454,17.3009934 11.4034886,17.8688752 12.8037933,17.8688752 C14.2005708,17.8688752 15.4703684,17.3009934 16.3874446,16.3874446 C17.3009934,15.4703684 17.8688752,14.204098 17.8688752,12.8037933 C17.8688752,11.4034886 17.3009934,10.1407454 16.3874446,9.22366929 C15.4703684,8.30659318 14.2005708,7.74223866 12.8037933,7.74223866 M12.2218027,31.727306 C11.2306551,30.566852 10.1477998,29.3675987 9.02967242,28.1330731 C6.62763847,25.4735524 4.08098867,22.6517798 2.33501685,20.1721471 L2.33148964,20.1721471 C1.56255659,19.0681286 0.980565989,17.8900385 0.589045037,16.6519857 C0.2010513,15.4245146 0,14.1370809 0,12.8037933 C0,9.26952309 1.43204961,6.06681116 3.7529576,3.74943038 C6.06681116,1.43204961 9.26952309,0 12.8037933,0 C16.3380635,0 19.5407755,1.43204961 21.8581562,3.74943038 C24.175537,6.06681116 25.6075866,9.26952309 25.6075866,12.8037933 L25.6040594,12.8037933 C25.6040594,14.1335537 25.4030081,15.4350963 25.0150144,16.673149 C24.6234934,17.9112018 24.0379756,19.0892918 23.276097,20.1721471 C21.526598,22.655307 18.9764209,25.4770796 16.5779142,28.1366003 C15.4597868,29.3711259 14.3769316,30.5703792 13.3822567,31.7343604 C13.1071339,32.0518099 12.6309597,32.0906092 12.3099831,31.8190136 C12.2817654,31.7907959 12.2500204,31.759051 12.2218027,31.727306"></path>
                </g>
            </g>
        </g>
    </g>
</svg>